<svg width="24" height="24" viewBox="0 0 24 24" fill="none" xmlns="http://www.w3.org/2000/svg">
<path d="M23.3333 0L23.12 0.04L16 2.8L8 0L0.48 2.53333C0.2 2.62667 0 2.86667 0 3.17333V23.3333C0 23.5101 0.070238 23.6797 0.195262 23.8047C0.320287 23.9298 0.489856 24 0.666667 24L0.88 23.96L8 21.2L16 24L23.52 21.4667C23.8 21.3733 24 21.1333 24 20.8267V0.666667C24 0.489856 23.9298 0.320287 23.8047 0.195262C23.6797 0.070238 23.5101 0 23.3333 0ZM9.33333 3.29333L14.6667 5.16V20.7067L9.33333 18.84V3.29333ZM2.66667 4.61333L6.66667 3.26667V18.8667L2.66667 20.4133V4.61333ZM21.3333 19.3867L17.3333 20.7333V5.14667L21.3333 3.6V19.3867Z" fill="black"/>
</svg>
