<svg width="25" height="24" viewBox="0 0 25 24" fill="none" xmlns="http://www.w3.org/2000/svg">
<path d="M12.2001 0C10.6242 0 9.06378 0.310389 7.60787 0.913446C6.15196 1.5165 4.8291 2.40042 3.71479 3.51472C1.46436 5.76516 0.200073 8.8174 0.200073 12C0.200073 15.1826 1.46436 18.2348 3.71479 20.4853C4.8291 21.5996 6.15196 22.4835 7.60787 23.0866C9.06378 23.6896 10.6242 24 12.2001 24C15.3827 24 18.4349 22.7357 20.6854 20.4853C22.9358 18.2348 24.2001 15.1826 24.2001 12C24.2001 10.4241 23.8897 8.86371 23.2866 7.4078C22.6836 5.95189 21.7997 4.62902 20.6854 3.51472C19.5711 2.40042 18.2482 1.5165 16.7923 0.913446C15.3364 0.310389 13.7759 0 12.2001 0ZM6.28407 19.536C6.80007 18.456 9.94407 17.4 12.2001 17.4C14.4561 17.4 17.6001 18.456 18.1161 19.536C16.4841 20.832 14.4321 21.6 12.2001 21.6C9.96807 21.6 7.91607 20.832 6.28407 19.536ZM19.8321 17.796C18.1161 15.708 13.9521 15 12.2001 15C10.4481 15 6.28407 15.708 4.56807 17.796C3.34407 16.2 2.60007 14.184 2.60007 12C2.60007 6.708 6.90807 2.4 12.2001 2.4C17.4921 2.4 21.8001 6.708 21.8001 12C21.8001 14.184 21.0561 16.2 19.8321 17.796ZM12.2001 4.8C9.87207 4.8 8.00007 6.672 8.00007 9C8.00007 11.328 9.87207 13.2 12.2001 13.2C14.5281 13.2 16.4001 11.328 16.4001 9C16.4001 6.672 14.5281 4.8 12.2001 4.8ZM12.2001 10.8C11.7227 10.8 11.2648 10.6104 10.9273 10.2728C10.5897 9.93523 10.4001 9.47739 10.4001 9C10.4001 8.52261 10.5897 8.06477 10.9273 7.72721C11.2648 7.38964 11.7227 7.2 12.2001 7.2C12.6775 7.2 13.1353 7.38964 13.4729 7.72721C13.8104 8.06477 14.0001 8.52261 14.0001 9C14.0001 9.47739 13.8104 9.93523 13.4729 10.2728C13.1353 10.6104 12.6775 10.8 12.2001 10.8Z" fill="black"/>
</svg>
