<svg width="25" height="24" viewBox="0 0 25 24" fill="none" xmlns="http://www.w3.org/2000/svg">
<path d="M9.31431 0C11.6785 0 13.9459 0.939181 15.6177 2.61093C17.2894 4.28269 18.2286 6.55007 18.2286 8.91429C18.2286 11.1223 17.4195 13.152 16.0892 14.7154L16.4595 15.0857H17.5429L24.4 21.9429L22.3429 24L15.4857 17.1429V16.0594L15.1155 15.6891C13.552 17.0194 11.5223 17.8286 9.31431 17.8286C6.95009 17.8286 4.68271 16.8894 3.01096 15.2176C1.33921 13.5459 0.400024 11.2785 0.400024 8.91429C0.400024 6.55007 1.33921 4.28269 3.01096 2.61093C4.68271 0.939181 6.95009 0 9.31431 0ZM9.31431 2.74286C5.88574 2.74286 3.14288 5.48571 3.14288 8.91429C3.14288 12.3429 5.88574 15.0857 9.31431 15.0857C12.7429 15.0857 15.4857 12.3429 15.4857 8.91429C15.4857 5.48571 12.7429 2.74286 9.31431 2.74286Z" fill="black"/>
</svg>
