<svg width="66" height="66" viewBox="0 0 66 66" fill="none" xmlns="http://www.w3.org/2000/svg">
<path d="M62.4672 65.6672H19.5328C17.7656 65.6672 16.3328 64.2344 16.3328 62.4672V42.2C16.3328 41.3896 16.64 40.6096 17.1936 40.0168L39.6416 15.964L32.9808 8.3648L6.7328 37.82V62.4672C6.7328 64.2344 5.3 65.6672 3.5328 65.6672C1.7656 65.6672 0.332802 64.2344 0.332802 62.4672V36.6016C0.332802 35.8168 0.621602 35.0584 1.144 34.4728L30.6112 1.404C31.2216 0.719199 32.064 0.309599 33.0128 0.332799C33.9304 0.336799 34.8016 0.733599 35.4064 1.4232L64.8736 35.0392C65.3856 35.6224 65.6672 36.3728 65.6672 37.1488V62.4672C65.6672 64.2344 64.2344 65.6672 62.4672 65.6672ZM22.7328 59.2672H59.2672V38.352L43.8816 20.8L22.7328 43.4608V59.2672Z" fill="#319795"/>
</svg>
